<svg width="30" height="30" viewBox="0 0 30 30" fill="none" xmlns="http://www.w3.org/2000/svg">
<rect width="30" height="30" rx="7" fill="#007AFF"/>
<path d="M11.2106 20.7607C12.5289 20.7607 13.4405 21.2354 13.8473 21.5141C13.9904 21.5894 14.3671 21.823 14.4651 21.8456V9.32492C13.9 8.34556 12.3557 7.57715 10.7812 7.57715C8.69441 7.57715 6.99184 8.75237 6.54736 9.64132V21.0244C6.5549 21.6949 6.93157 21.9661 7.39865 21.9661C7.74519 21.9661 7.96366 21.8456 8.1972 21.6648C8.67934 21.273 9.78676 20.7607 11.2106 20.7607ZM18.7893 20.7607C20.2131 20.7607 21.313 21.273 21.7951 21.6648C22.0287 21.8456 22.2471 21.9661 22.5861 21.9661C23.0532 21.9661 23.445 21.6949 23.445 21.0244V9.64132C23.0005 8.75237 21.2979 7.57715 19.2187 7.57715C17.6442 7.57715 16.0923 8.34556 15.5348 9.32492V21.8606C15.6252 21.838 16.0019 21.597 16.1526 21.5141C16.5594 21.2354 17.4709 20.7607 18.7893 20.7607Z" fill="white"/>
</svg>
