<svg width="30" height="30" viewBox="0 0 30 30" fill="none" xmlns="http://www.w3.org/2000/svg">
<rect width="30" height="30" rx="7" fill="#34C759"/>
<path d="M14.646 17.8305L15.7987 16.6628C14.9097 16.5874 14.2694 16.2936 13.8098 15.8341C12.5367 14.5609 12.5367 12.7604 13.8023 11.5023L16.3034 8.99369C17.5766 7.72806 19.3695 7.72053 20.6427 8.99369C21.9234 10.2744 21.9083 12.0673 20.6502 13.333L19.3695 14.6061C19.6106 15.1636 19.6935 15.8416 19.5579 16.4292L21.7124 14.2822C23.5657 12.4365 23.5732 9.79977 21.7049 7.93147C19.8291 6.05563 17.2074 6.0707 15.3542 7.92393L12.7325 10.5456C10.8793 12.3988 10.8718 15.028 12.7401 16.8963C13.177 17.3408 13.7797 17.6723 14.646 17.8305ZM15.3466 11.4647L14.194 12.6324C15.083 12.7152 15.7233 13.0015 16.1829 13.461C17.4636 14.7342 17.456 16.5347 16.1904 17.8003L13.6893 20.3014C12.4161 21.5746 10.6232 21.5746 9.35753 20.3014C8.07683 19.0208 8.08437 17.2353 9.34999 15.9697L10.6232 14.689C10.3821 14.1391 10.3067 13.461 10.4348 12.8659L8.28024 15.0205C6.427 16.8662 6.41947 19.4954 8.28777 21.3637C10.1636 23.2395 12.7853 23.2244 14.6385 21.3787L17.2601 18.7495C19.1134 16.8963 19.1209 14.2671 17.2526 12.3988C16.8157 11.9619 16.2205 11.6304 15.3466 11.4647Z" fill="white"/>
</svg>
