<svg width="30" height="30" viewBox="0 0 30 30" fill="none" xmlns="http://www.w3.org/2000/svg">
<rect width="30" height="30" rx="7" fill="#C7C7CC"/>
<path d="M11.3463 21.958H18.6538C19.6633 21.958 20.1605 21.4608 20.1605 20.3609V14.7183C20.1605 13.7239 19.7537 13.2192 18.9099 13.1363V11.2755C18.9099 8.41281 17.0039 7.03418 15 7.03418C12.9961 7.03418 11.0902 8.41281 11.0902 11.2755V13.1589C10.3067 13.2794 9.8396 13.7766 9.8396 14.7183V20.3609C9.8396 21.4608 10.3368 21.958 11.3463 21.958ZM12.5366 11.1399C12.5366 9.38463 13.6515 8.42034 15 8.42034C16.341 8.42034 17.4635 9.38463 17.4635 11.1399V13.1212L12.5366 13.1288V11.1399Z" fill="white"/>
</svg>
