<svg width="28" height="28" viewBox="0 0 28 28" fill="none" xmlns="http://www.w3.org/2000/svg">
<path d="M11.2035 21.0964C12.7599 21.0964 14.2184 20.6309 15.4322 19.8358L19.7195 24.0927C20.0034 24.3642 20.3656 24.5 20.7571 24.5C21.5696 24.5 22.1667 23.8697 22.1667 23.0745C22.1667 22.7061 22.0394 22.3473 21.7653 22.0758L17.5073 17.8382C18.3883 16.597 18.9071 15.0939 18.9071 13.4648C18.9071 9.26606 15.442 5.83333 11.2035 5.83333C6.97492 5.83333 3.5 9.26606 3.5 13.4648C3.5 17.6636 6.96513 21.0964 11.2035 21.0964ZM11.2035 19.06C8.10059 19.06 5.55558 16.5388 5.55558 13.4648C5.55558 10.3909 8.10059 7.8697 11.2035 7.8697C14.3065 7.8697 16.8515 10.3909 16.8515 13.4648C16.8515 16.5388 14.3065 19.06 11.2035 19.06Z" fill="#8E8E93"/>
</svg>
