<svg width="30" height="30" viewBox="0 0 30 30" fill="none" xmlns="http://www.w3.org/2000/svg">
<rect width="30" height="30" rx="7" fill="#FF2D55"/>
<path d="M8.97321 19.6832H21.0193C21.7952 19.6832 22.2698 19.2613 22.2698 18.6285C22.2698 17.8299 21.5466 17.1444 20.8686 16.4965C20.3337 15.9767 20.2132 14.8919 20.1152 13.8899C19.9947 11.1327 19.1886 9.18903 17.2374 8.48842C16.9286 7.494 16.1074 6.72559 14.9925 6.72559C13.885 6.72559 13.0639 7.494 12.7475 8.48842C10.8039 9.18903 9.99023 11.1327 9.87723 13.8899C9.7793 14.8919 9.65123 15.9767 9.12388 16.4965C8.44587 17.1444 7.72266 17.8299 7.72266 18.6285C7.72266 19.2613 8.19727 19.6832 8.97321 19.6832ZM14.9925 22.787C16.3334 22.787 17.3052 21.8302 17.4032 20.7379H12.5893C12.6872 21.8302 13.659 22.787 14.9925 22.787Z" fill="white"/>
</svg>
