<svg width="30" height="30" viewBox="0 0 30 30" fill="none" xmlns="http://www.w3.org/2000/svg">
<rect width="30" height="30" rx="7" fill="#FF3B30"/>
<path d="M15.0001 22.486C19.2565 22.486 22.7822 18.9679 22.7822 14.704C22.7822 10.4475 19.2565 6.92188 14.9926 6.92188C10.7362 6.92188 7.21802 10.4475 7.21802 14.704C7.21802 18.9679 10.7437 22.486 15.0001 22.486ZM15.0076 14.9224C14.6611 14.9224 14.42 14.6738 14.42 14.3198V11.0276C14.42 10.6735 14.6611 10.4249 15.0076 10.4249C15.3542 10.4249 15.5952 10.6735 15.5952 11.0276V14.3198C15.5952 14.6738 15.3542 14.9224 15.0076 14.9224ZM15.0076 18.7645C12.7853 18.7645 10.9471 16.9188 10.9471 14.704C10.9471 13.6041 11.4142 12.5193 12.2202 11.781C12.8003 11.2084 13.6215 12.022 13.0339 12.6097C12.4538 13.1596 12.1298 13.8979 12.1298 14.704C12.1298 16.3086 13.4105 17.5893 15.0076 17.5893C16.6047 17.5893 17.8854 16.3086 17.8854 14.704C17.8854 13.8979 17.554 13.1596 16.9814 12.6172C16.3938 12.0296 17.2074 11.216 17.795 11.781C18.6011 12.5268 19.0682 13.6116 19.0682 14.704C19.0682 16.9188 17.23 18.7645 15.0076 18.7645Z" fill="white"/>
</svg>
