<svg width="30" height="30" viewBox="0 0 30 30" fill="none" xmlns="http://www.w3.org/2000/svg">
<rect width="30" height="30" rx="7" fill="#5856D6"/>
<path d="M14.9925 22.4933C19.264 22.4933 22.7897 18.9676 22.7897 14.7037C22.7897 10.4397 19.2565 6.91406 14.985 6.91406C10.721 6.91406 7.20288 10.4397 7.20288 14.7037C7.20288 18.9676 10.7286 22.4933 14.9925 22.4933ZM14.8117 16.2556C14.322 16.2556 14.0508 16.0296 14.0508 15.5776V15.4947C14.0508 14.7866 14.4576 14.3873 15.0151 13.9955C15.678 13.536 16.002 13.2874 16.002 12.8052C16.002 12.2854 15.6027 11.9389 14.985 11.9389C14.533 11.9389 14.2015 12.1649 13.9529 12.5491C13.7118 12.8203 13.5988 13.0539 13.1468 13.0539C12.7777 13.0539 12.4763 12.8128 12.4763 12.4361C12.4763 12.2854 12.5065 12.1498 12.5592 12.0142C12.8078 11.2759 13.7118 10.6733 15.0603 10.6733C16.4615 10.6733 17.6443 11.4191 17.6443 12.7299C17.6443 13.6339 17.1471 14.0859 16.3636 14.5907C15.8664 14.9146 15.5801 15.1858 15.5575 15.5926C15.5575 15.6152 15.55 15.6529 15.55 15.683C15.5274 16.007 15.2486 16.2556 14.8117 16.2556ZM14.8042 18.6663C14.2919 18.6663 13.87 18.2972 13.87 17.7999C13.87 17.3027 14.2844 16.9336 14.8042 16.9336C15.3164 16.9336 15.7308 17.3027 15.7308 17.7999C15.7308 18.3047 15.3089 18.6663 14.8042 18.6663Z" fill="white"/>
</svg>
