<svg width="20" height="20" viewBox="0 0 20 20" fill="none" xmlns="http://www.w3.org/2000/svg">
<g filter="url(#filter0_b_502_2382)">
<rect width="20" height="20" rx="10" fill="#3C3C43" fill-opacity="0.4"/>
<path d="M6.82332 12.6259C6.61597 12.8333 6.61174 13.2015 6.82756 13.4173C7.04761 13.6331 7.41577 13.6289 7.6189 13.4257L10.1241 10.9205L12.6251 13.4215C12.8367 13.6331 13.2006 13.6331 13.4164 13.4173C13.6322 13.1972 13.6322 12.8375 13.4207 12.6259L10.9197 10.125L13.4207 7.61975C13.6322 7.40817 13.6365 7.04423 13.4164 6.82841C13.2006 6.61259 12.8367 6.61259 12.6251 6.82418L10.1241 9.32516L7.6189 6.82418C7.41577 6.61683 7.04338 6.60836 6.82756 6.82841C6.61174 7.04423 6.61597 7.41663 6.82332 7.61975L9.3243 10.125L6.82332 12.6259Z" fill="white"/>
</g>
<defs>
<filter id="filter0_b_502_2382" x="-54.3656" y="-54.3656" width="128.731" height="128.731" filterUnits="userSpaceOnUse" color-interpolation-filters="sRGB">
<feFlood flood-opacity="0" result="BackgroundImageFix"/>
<feGaussianBlur in="BackgroundImageFix" stdDeviation="27.1828"/>
<feComposite in2="SourceAlpha" operator="in" result="effect1_backgroundBlur_502_2382"/>
<feBlend mode="normal" in="SourceGraphic" in2="effect1_backgroundBlur_502_2382" result="shape"/>
</filter>
</defs>
</svg>
