<svg width="30" height="30" viewBox="0 0 30 30" fill="none" xmlns="http://www.w3.org/2000/svg">
<rect width="30" height="30" rx="7" fill="#FF9500"/>
<path d="M14.9925 22.4933C19.264 22.4933 22.7897 18.9676 22.7897 14.7037C22.7897 10.4397 19.2565 6.91406 14.985 6.91406C10.721 6.91406 7.20288 10.4397 7.20288 14.7037C7.20288 18.9676 10.7286 22.4933 14.9925 22.4933ZM11.1956 15.6529C10.8566 15.6529 10.5929 15.3892 10.5929 15.0502C10.5929 14.7112 10.8566 14.4475 11.1956 14.4475H14.3898V10.1233C14.3898 9.78432 14.6535 9.52065 14.985 9.52065C15.3315 9.52065 15.5952 9.78432 15.5952 10.1233V15.0502C15.5952 15.3892 15.3315 15.6529 14.985 15.6529H11.1956Z" fill="white"/>
</svg>
